<mxfile host="app.diagrams.net" modified="2022-03-11T14:59:24.002Z" agent="5.0 (Macintosh; Intel Mac OS X 10_15_7) AppleWebKit/537.36 (KHTML, like Gecko) Chrome/99.0.4844.51 Safari/537.36" etag="Kusm2-nk-vYVj6pTgUdV" version="17.1.1" type="github">
  <diagram id="TadrSFOEzgH1Rt5JzNdV" name="Page-1">
    <mxGraphModel dx="946" dy="510" grid="1" gridSize="10" guides="1" tooltips="1" connect="1" arrows="1" fold="1" page="1" pageScale="1" pageWidth="1100" pageHeight="850" math="0" shadow="0">
      <root>
        <mxCell id="0" />
        <mxCell id="1" parent="0" />
        <mxCell id="Q4zBiMyVYiB5tO7Q33-t-1" value="P&lt;sub&gt;1&lt;/sub&gt;" style="ellipse;whiteSpace=wrap;html=1;aspect=fixed;" parent="1" vertex="1">
          <mxGeometry x="240" y="290" width="50" height="50" as="geometry" />
        </mxCell>
        <mxCell id="Q4zBiMyVYiB5tO7Q33-t-3" value="" style="image;html=1;image=img/lib/clip_art/computers/Server_Rack_128x128.png" parent="1" vertex="1">
          <mxGeometry x="525" y="365" width="50" height="60" as="geometry" />
        </mxCell>
        <mxCell id="Q4zBiMyVYiB5tO7Q33-t-4" value="" style="fontColor=#0066CC;verticalAlign=top;verticalLabelPosition=bottom;labelPosition=center;align=center;html=1;outlineConnect=0;fillColor=#CCCCCC;strokeColor=#6881B3;gradientColor=none;gradientDirection=north;strokeWidth=2;shape=mxgraph.networks.desktop_pc;" parent="1" vertex="1">
          <mxGeometry x="270" y="365" width="30" height="60" as="geometry" />
        </mxCell>
        <mxCell id="Q4zBiMyVYiB5tO7Q33-t-5" value="" style="fontColor=#0066CC;verticalAlign=top;verticalLabelPosition=bottom;labelPosition=center;align=center;html=1;outlineConnect=0;fillColor=#CCCCCC;strokeColor=#6881B3;gradientColor=none;gradientDirection=north;strokeWidth=2;shape=mxgraph.networks.desktop_pc;" parent="1" vertex="1">
          <mxGeometry x="340" y="365" width="30" height="60" as="geometry" />
        </mxCell>
        <mxCell id="Q4zBiMyVYiB5tO7Q33-t-6" value="" style="fontColor=#0066CC;verticalAlign=top;verticalLabelPosition=bottom;labelPosition=center;align=center;html=1;outlineConnect=0;fillColor=#CCCCCC;strokeColor=#6881B3;gradientColor=none;gradientDirection=north;strokeWidth=2;shape=mxgraph.networks.desktop_pc;" parent="1" vertex="1">
          <mxGeometry x="410" y="365" width="30" height="60" as="geometry" />
        </mxCell>
        <mxCell id="Q4zBiMyVYiB5tO7Q33-t-7" value="P&lt;sub&gt;1&lt;/sub&gt;" style="ellipse;whiteSpace=wrap;html=1;aspect=fixed;" parent="1" vertex="1">
          <mxGeometry x="410" y="290" width="50" height="50" as="geometry" />
        </mxCell>
        <mxCell id="Q4zBiMyVYiB5tO7Q33-t-14" value="" style="group" parent="1" vertex="1" connectable="0">
          <mxGeometry x="70" y="380" width="80" height="130" as="geometry" />
        </mxCell>
        <mxCell id="Q4zBiMyVYiB5tO7Q33-t-8" value="" style="rounded=0;whiteSpace=wrap;html=1;" parent="Q4zBiMyVYiB5tO7Q33-t-14" vertex="1">
          <mxGeometry x="10" y="20" width="70" height="70" as="geometry" />
        </mxCell>
        <mxCell id="Q4zBiMyVYiB5tO7Q33-t-9" value="" style="rounded=0;whiteSpace=wrap;html=1;" parent="Q4zBiMyVYiB5tO7Q33-t-14" vertex="1">
          <mxGeometry x="10" y="90" width="70" height="40" as="geometry" />
        </mxCell>
        <mxCell id="Q4zBiMyVYiB5tO7Q33-t-10" value="Tx&lt;sub&gt;i&lt;/sub&gt;" style="rounded=0;whiteSpace=wrap;html=1;" parent="Q4zBiMyVYiB5tO7Q33-t-14" vertex="1">
          <mxGeometry x="10" width="70" height="20" as="geometry" />
        </mxCell>
        <mxCell id="Q4zBiMyVYiB5tO7Q33-t-11" value="&lt;div class=&quot;mind-clipboard&quot;&gt;&lt;div&gt;TxID&lt;/div&gt;&lt;div&gt;&lt;span class=&quot;equation-text&quot;&gt;&lt;span&gt;&lt;span class=&quot;katex&quot;&gt;&lt;span class=&quot;katex-html&quot;&gt;&lt;span class=&quot;base&quot;&gt;&lt;span class=&quot;mord&quot;&gt;&lt;span class=&quot;msupsub&quot;&gt;&lt;span class=&quot;vlist-t vlist-t2&quot;&gt;&lt;span class=&quot;vlist-r&quot;&gt;&lt;span class=&quot;vlist-s&quot;&gt;​&lt;/span&gt;&lt;/span&gt;&lt;span class=&quot;vlist-r&quot;&gt;&lt;span class=&quot;vlist&quot; style=&quot;height: 0.15em&quot;&gt;&lt;span&gt;&lt;/span&gt;&lt;/span&gt;&lt;/span&gt;&lt;/span&gt;&lt;/span&gt;&lt;/span&gt;&lt;span class=&quot;mord&quot;&gt;&lt;span class=&quot;mord mathdefault&quot;&gt;a&lt;/span&gt;&lt;span class=&quot;msupsub&quot;&gt;&lt;span class=&quot;vlist-t vlist-t2&quot;&gt;&lt;span class=&quot;vlist-r&quot;&gt;&lt;sub&gt;&lt;span class=&quot;vlist&quot; style=&quot;height: 0.31166399999999994em&quot;&gt;&lt;span style=&quot;top: -2.5500000000000003em ; margin-left: 0em ; margin-right: 0.05em&quot;&gt;&lt;span class=&quot;pstrut&quot; style=&quot;height: 2.7em&quot;&gt;&lt;/span&gt;&lt;span class=&quot;sizing reset-size6 size3 mtight&quot;&gt;&lt;span class=&quot;mord mathdefault mtight&quot;&gt;i&lt;/span&gt;&lt;/span&gt;&lt;/span&gt;&lt;/span&gt;&lt;span class=&quot;vlist-s&quot;&gt;​&lt;/span&gt;&lt;/sub&gt;&lt;/span&gt;&lt;/span&gt;&lt;/span&gt;&lt;/span&gt;&lt;span class=&quot;mord&quot;&gt;&lt;span class=&quot;msupsub&quot;&gt;&lt;span class=&quot;vlist-t vlist-t2&quot;&gt;&lt;span class=&quot;vlist-r&quot;&gt;&lt;span class=&quot;vlist-s&quot;&gt;​&lt;/span&gt;&lt;/span&gt;&lt;span class=&quot;vlist-r&quot;&gt;&lt;span class=&quot;vlist&quot; style=&quot;height: 0.15em&quot;&gt;&lt;span&gt;&lt;/span&gt;&lt;/span&gt;&lt;/span&gt;&lt;/span&gt;&lt;/span&gt;&lt;/span&gt;&lt;/span&gt;&lt;/span&gt;&lt;/span&gt;&lt;/span&gt;&lt;span&gt;﻿&lt;/span&gt;&lt;/span&gt;&lt;br&gt;&lt;/div&gt;&lt;div&gt;H(V&lt;sub&gt;i,j&lt;/sub&gt;)&lt;/div&gt;&lt;div&gt;V&lt;span class=&quot;equation-text&quot;&gt;&lt;span&gt;&lt;span class=&quot;katex&quot;&gt;&lt;span class=&quot;katex-mathml&quot;&gt;&lt;sub&gt;i&lt;/sub&gt;&lt;/span&gt;&lt;/span&gt;&lt;/span&gt;&lt;span&gt;﻿&lt;/span&gt;&lt;/span&gt;&lt;/div&gt;&lt;/div&gt;" style="text;html=1;strokeColor=none;fillColor=none;align=center;verticalAlign=middle;whiteSpace=wrap;rounded=0;" parent="Q4zBiMyVYiB5tO7Q33-t-14" vertex="1">
          <mxGeometry x="5" y="10" width="50" height="90" as="geometry" />
        </mxCell>
        <mxCell id="Q4zBiMyVYiB5tO7Q33-t-12" value="&lt;div class=&quot;mind-clipboard&quot;&gt;F&lt;span class=&quot;equation-text&quot;&gt;&lt;span&gt;&lt;span class=&quot;katex&quot;&gt;&lt;span class=&quot;katex-mathml&quot;&gt;&lt;sub&gt;i&lt;/sub&gt;&lt;/span&gt;&lt;/span&gt;&lt;/span&gt;&lt;/span&gt;&lt;div&gt;S&lt;sub&gt;i&lt;/sub&gt;&lt;/div&gt;&lt;/div&gt;" style="text;html=1;strokeColor=none;fillColor=none;align=center;verticalAlign=middle;whiteSpace=wrap;rounded=0;" parent="Q4zBiMyVYiB5tO7Q33-t-14" vertex="1">
          <mxGeometry y="95" width="60" height="30" as="geometry" />
        </mxCell>
        <mxCell id="Q4zBiMyVYiB5tO7Q33-t-15" value="&lt;div class=&quot;mind-clipboard&quot;&gt;&lt;b&gt;(3)&lt;/b&gt;Enc(&lt;span class=&quot;equation-text&quot;&gt;&lt;span class=&quot;katex&quot;&gt;&lt;span class=&quot;katex-mathml&quot;&gt;PK&lt;sub&gt;c&lt;/sub&gt;&lt;/span&gt;&lt;/span&gt;&lt;/span&gt;&lt;span&gt;,m)&lt;/span&gt;&lt;/div&gt;" style="rounded=0;whiteSpace=wrap;html=1;" parent="1" vertex="1">
          <mxGeometry x="70" y="340" width="95" height="25" as="geometry" />
        </mxCell>
      </root>
    </mxGraphModel>
  </diagram>
</mxfile>
